<mxfile host="app.diagrams.net" modified="2023-07-04T14:44:14.812Z" agent="Mozilla/5.0 (Windows NT 10.0; Win64; x64) AppleWebKit/537.36 (KHTML, like Gecko) Chrome/114.0.0.0 Safari/537.36" version="21.5.2" etag="j_45rOaKeRd3CwICHAXm" type="github">
  <diagram name="Page-1" id="xeIxkAoRWII9STHgT98n">
    <mxGraphModel>
      <root>
        <mxCell id="0" />
        <mxCell id="1" parent="0" />
      </root>
    </mxGraphModel>
  </diagram>
</mxfile>
